<svg width="27" height="24" viewBox="0 0 27 24" fill="none" xmlns="http://www.w3.org/2000/svg">
<path d="M7.25 11.1429H7.25002L7.24998 11.1381C7.22979 9.03504 5.84553 7.21004 3.875 6.63614V3.42857C3.875 1.80371 5.16958 0.5 6.75 0.5H20.25C21.8304 0.5 23.125 1.80371 23.125 3.42857V6.63614C21.1545 7.21004 19.7702 9.03504 19.75 11.1381H19.75V11.1429V14.9286H7.25V11.1429Z" fill="#676769" stroke="#676769"/>
<path d="M21.9375 17.643H22.4375V17.143V11.1493C22.4678 10.0102 23.366 9.10565 24.4688 9.07172C25.5715 9.10565 26.4697 10.0102 26.5 11.1493V23.5001H23.625H20.25H6.75H3.375H0.5V11.1493C0.530294 10.0102 1.42846 9.10565 2.53125 9.07172C3.63404 9.10565 4.5322 10.0102 4.5625 11.1493V17.143V17.643H5.0625H21.9375Z" fill="#676769" stroke="#676769"/>
</svg>
